<?xml version="1.0" encoding="UTF-8"?>
<svg width="296px" height="422px" viewBox="0 0 296 422" version="1.1" xmlns="http://www.w3.org/2000/svg" xmlns:xlink="http://www.w3.org/1999/xlink">
    <title>face</title>
    <defs>
        <polygon id="path-1" points="0 0 512 0 512 512 0 512"></polygon>
        <path d="M163.853333,209.053345 C163.853333,209.053345 169.7742,173.332214 198.760651,151.453339 C198.760651,151.453339 245.837494,183.459991 317.878296,152.306671 C317.878296,152.306671 344.493469,164.823303 353.720001,209.480011 C353.720001,209.480011 353.720001,209.480011 353.720001,209.480011 C353.720001,209.480011 359.196686,163.548889 338.360016,135.23999 C338.360016,135.23999 334.693665,116.573334 303.799988,101.533325 C303.799988,101.533325 292.279999,108.359985 292.279999,108.359985 C292.279999,108.359985 284.839752,99.233307 264.973328,87.880005 C264.973328,87.880005 251.574951,94.853333 244.066681,106.226654 C244.066681,106.226654 231.266663,98.119995 231.266663,98.119995 C231.266663,98.119995 215.859741,105.339996 206.093323,119.026672 C206.093323,119.026672 189.026672,121.58667 189.026672,121.58667 C189.026672,121.58667 180.066681,137.799988 180.066681,137.799988 C180.066681,137.799988 161.456451,152.014435 163.426666,209.480011 C163.426666,209.480011 163.853333,209.053345 163.853333,209.053345 Z" id="path-3"></path>
    </defs>
    <g id="Page-1" stroke="none" stroke-width="1" fill="none" fill-rule="evenodd">
        <g id="users-avatar-svgrepo-com" transform="translate(-114.000000, -84.000000)">
            <path d="M116.359985,502 C116.359985,502 109.744995,412.01178 194.440002,403.613342 C194.440002,403.613342 232.41333,403.613342 232.41333,403.613342 C232.41333,403.613342 232.41333,386.119995 232.41333,386.119995 C232.41333,386.119995 259.125,397.593323 286.17334,387.399994 C286.17334,387.399994 287.026672,403.613342 287.026672,403.613342 C287.026672,403.613342 331.399994,403.613342 331.399994,403.613342 C331.399994,403.613342 407.385406,406.597595 403.933319,502.853333 C403.933319,502.853333 116.359985,502 116.359985,502 Z" id="body-bg-flat-copy" fill="#FFFFFF" fill-rule="nonzero"></path>
            <path d="M404.675262,505.58667 C404.675262,505.58667 404.675262,505.58667 404.675262,505.58667 C404.675262,505.58667 120.158875,505.58667 120.158875,505.58667 C120.158875,505.58667 120.158875,505.58667 120.158875,505.58667 C120.158875,505.58667 114.640991,505.58667 114.640991,505.58667 C114.640991,505.58667 116.018341,482.056854 116.018341,482.056854 C118.707642,436.114624 154.905212,401.053345 196.328339,401.053345 C196.328339,401.053345 227.853333,401.053345 227.853333,401.053345 C227.853333,401.053345 227.853333,405.746674 227.853333,405.746674 C227.853333,405.746674 198.843048,405.746674 198.843048,405.746674 C158.919678,405.746674 124.032654,439.495087 121.440704,483.71701 C121.440704,483.71701 120.483978,500.040009 120.483978,500.040009 C120.483978,500.040009 403.923492,500.040009 403.923492,500.040009 C403.923492,500.040009 403.393433,483.71701 403.393433,483.71701 C400.801483,439.495087 365.914459,405.746674 325.991058,405.746674 C325.991058,405.746674 287.160004,405.746674 287.160004,405.746674 C287.160004,405.746674 287.160004,401.053345 287.160004,401.053345 C287.160004,401.053345 328.252747,401.053345 328.252747,401.053345 C369.675873,401.053345 405.873444,436.114624 408.562744,482.056854 C408.562744,482.056854 409.940094,505.58667 409.940094,505.58667 C409.940094,505.58667 404.675262,505.58667 404.675262,505.58667 Z" id="Rounded-Rectangle-13" fill="#3B434F" fill-rule="nonzero"></path>
            <path d="M257.720001,453.959991 C234.862793,453.959991 216.333313,435.430573 216.333313,412.573334 C216.333313,408.573883 216.911926,404.7117 217.970459,401.053345 C217.970459,401.053345 218.040009,401.053345 218.040009,401.053345 C218.040009,401.053345 222.431793,401.053345 222.431793,401.053345 C222.431793,401.053345 229.986664,401.053345 229.986664,401.053345 C229.986664,401.053345 229.986664,405.746674 229.986664,405.746674 C229.986664,405.746674 221.238647,405.746674 221.238647,405.746674 C220.824432,407.959839 220.599976,410.239716 220.599976,412.573334 C220.599976,433.074158 237.219208,449.693329 257.720001,449.693329 C278.220825,449.693329 294.839996,433.074158 294.839996,412.573334 C294.839996,410.239716 294.61557,407.959839 294.201324,405.746674 C294.201324,405.746674 285.453339,405.746674 285.453339,405.746674 C285.453339,405.746674 285.453339,401.053345 285.453339,401.053345 C285.453339,401.053345 293.008179,401.053345 293.008179,401.053345 C293.008179,401.053345 297.399994,401.053345 297.399994,401.053345 C297.399994,401.053345 297.469513,401.053345 297.469513,401.053345 C298.528046,404.7117 299.106659,408.573883 299.106659,412.573334 C299.106659,435.430573 280.57724,453.959991 257.720001,453.959991 Z" id="Ellipse-4" fill="#3B434F" fill-rule="nonzero"></path>
            <path d="M233.399994,384.146088 C233.399994,384.146088 233.399994,410.461182 233.399994,410.461182 C233.399994,424.116669 244.479462,435.186676 258.146667,435.186676 C271.813873,435.186676 282.893341,424.116669 282.893341,410.461182 C282.893341,410.461182 282.893341,384.688995 282.893341,384.688995 C284.329498,384.251862 285.752136,383.777069 287.160004,383.26413 C287.160004,383.26413 287.160004,410.640289 287.160004,410.640289 C287.160004,426.78891 274.074799,439.880005 257.93335,439.880005 C241.791901,439.880005 228.706665,426.78891 228.706665,410.640289 C228.706665,410.640289 228.706665,382.453674 228.706665,382.453674 C230.252502,383.064911 231.818207,383.627106 233.399994,384.146088 Z" id="neck" fill="#3B434F" fill-rule="nonzero"></path>
            <path d="M259.214661,116.466644 C312.292542,116.466644 354.186951,166.067871 352.824738,225.664948 C352.824738,225.664948 351.376923,289.006104 351.376923,289.006104 C350.093597,345.152466 308.845428,389.533325 259.214661,389.533325 C209.583893,389.533325 168.335724,345.152466 167.052399,289.006104 C167.052399,289.006104 165.604584,225.664948 165.604584,225.664948 C164.242401,166.067871 206.13678,116.466644 259.214661,116.466644 Z" id="2-copy-5" fill="#FFFFFF" fill-rule="nonzero"></path>
            <path d="M357.089386,223.701141 C357.089386,223.701141 355.572327,289.615509 355.572327,289.615509 C354.227631,348.042816 311.006287,394.226654 259.001404,394.226654 C206.99649,394.226654 163.775177,348.042816 162.43045,289.615509 C162.43045,289.615509 160.913361,223.701141 160.913361,223.701141 C159.486023,161.682922 203.384491,110.06665 259.001404,110.06665 C314.618317,110.06665 358.516754,161.682922 357.089386,223.701141 Z M258.7883,116.893311 C206.436035,116.893311 165.11438,166.107025 166.457916,225.238495 C166.457916,225.238495 167.885956,288.084808 167.885956,288.084808 C169.151733,343.792511 209.836029,387.82666 258.7883,387.82666 C307.74057,387.82666 348.424835,343.792511 349.690613,288.084808 C349.690613,288.084808 351.118622,225.238495 351.118622,225.238495 C352.462219,166.107025 311.140564,116.893311 258.7883,116.893311 Z" id="2-line" fill="#3B434F"></path>
            <path d="M354.426666,234.65332 C354.426666,234.65332 350.160004,304.626678 350.160004,304.626678 C350.160004,304.626678 331.209778,385.397614 258,394.961365 C258,394.961365 258,395.079987 258,395.079987 C257.85611,395.062408 257.716797,395.038818 257.573334,395.020691 C257.429871,395.038818 257.290558,395.062408 257.146667,395.079987 C257.146667,395.079987 257.146667,394.961365 257.146667,394.961365 C183.93692,385.397614 164.986664,304.626678 164.986664,304.626678 C164.986664,304.626678 160.720001,234.65332 160.720001,234.65332 C179.717773,318.980011 195.706665,324.253357 195.706665,324.253357 C192.4711,298.68222 218.746674,301.213348 218.746674,301.213348 C234.760803,303.918427 247.509155,305.225616 257.573334,305.714325 C267.637543,305.225616 280.385864,303.918427 296.399994,301.213348 C296.399994,301.213348 322.675537,298.68222 319.440002,324.253357 C319.440002,324.253357 335.428894,318.980011 354.426666,234.65332 Z M306.983093,332.926392 C305.741058,317.884766 296.670868,319.160217 296.670868,319.160217 C280.546234,323.904846 267.888733,326.540649 258,327.880249 C258,327.880249 258,327.781921 258,327.781921 C248.180511,326.453247 235.611664,323.839081 219.600006,319.133331 C219.600006,319.133331 210.593323,317.868317 209.359985,332.786682 C209.359985,332.786682 205.743317,347.733337 217.893341,354.119995 C217.893341,354.119995 233.253326,370.333344 233.253326,370.333344 C233.253326,370.333344 243.75,373.660004 243.493347,360.946655 C243.493347,360.946655 242.424988,351.464996 248.613342,349.853333 C248.613342,349.853333 258,349.853333 258,349.853333 C258,349.853333 258,350.134094 258,350.134094 C258,350.134094 267.452881,350.134094 267.452881,350.134094 C273.684875,351.759094 272.609009,361.319122 272.609009,361.319122 C272.350525,374.137543 282.921204,370.783356 282.921204,370.783356 C282.921204,370.783356 298.389557,354.436035 298.389557,354.436035 C310.625275,347.996582 306.983093,332.926392 306.983093,332.926392 Z" id="1-copy-4" fill="#3B434F" opacity="0.058824"></path>
            <path d="M248.76001,355.826691 C248.76001,355.826691 269.23999,355.826691 269.23999,355.826691 C270.182587,355.826691 270.946655,356.590759 270.946655,357.533325 C270.946655,358.475922 270.182587,359.23999 269.23999,359.23999 C269.23999,359.23999 248.76001,359.23999 248.76001,359.23999 C247.817413,359.23999 247.053345,358.475922 247.053345,357.533325 C247.053345,356.590759 247.817413,355.826691 248.76001,355.826691 Z" id="Rounded-Rectangle-3" fill="#3B434F" fill-rule="nonzero"></path>
            <path d="M230.838165,335.406464 C230.838165,335.406464 233.214661,332.079865 233.214661,332.079865 C240.854858,336.450012 249.931793,338.983551 259.669922,338.983551 C269.516541,338.983551 278.686523,336.392334 286.379395,331.932159 C286.379395,331.932159 288.867615,335.368225 288.867615,335.368225 C280.498932,340.21286 270.527039,343.026703 259.820404,343.026703 C249.141663,343.026703 239.19342,340.227997 230.838165,335.406464 Z" id="2" fill="#3B434F" fill-rule="nonzero"></path>
            <path d="M160.80722,233.313141 C160.795441,233.313812 159.759613,232.486603 157.803619,231.870758 C156.826019,231.563507 155.611023,231.31076 154.226166,231.248444 C153.88031,231.23288 153.524353,231.229187 153.160126,231.239532 C152.795898,231.249878 152.42337,231.274231 152.044708,231.314667 C151.287476,231.395569 150.505402,231.540955 149.718414,231.767334 C146.567261,232.672913 143.352692,234.874664 141.464783,239.419098 C140.51709,241.691437 139.891907,244.549713 139.726624,248.125916 C139.685272,249.019989 139.672638,249.958923 139.690765,250.944794 C139.708923,251.930664 139.757874,252.96347 139.83963,254.045288 C140.003052,256.208832 140.298157,258.568451 140.737854,261.139679 C140.728241,261.137146 140.327759,268.909668 143.106445,277.84082 C145.718689,286.572784 151.991516,297.299225 163.573334,300.36441 C162.241302,278.185028 162.199921,255.589905 160.80722,233.313141 C160.80722,233.313141 160.80722,233.313141 160.80722,233.313141 Z" id="Shape-11-copy" fill="#FFFFFF" fill-rule="nonzero"></path>
            <path d="M162.127869,234.207275 C162.127869,234.207275 141.951477,227.955597 142.66153,248.69809 C142.66153,248.69809 145.665436,278.77536 146.969879,281.547363 C146.969879,281.547363 154.893707,299.059387 167.970856,299.83548 C180.751862,300.593994 167.970856,299.83548 167.970856,299.83548 C167.970856,299.83548 168.129578,305.480011 168.129578,305.480011 C168.129578,305.480011 145.144928,302.53302 140.705597,276.04541 C140.705597,276.04541 137.201721,251.982697 137.201721,251.982697 C137.201721,251.982697 134.48111,220.138062 160.871185,228.234802 C186.580475,236.122681 160.871185,228.234802 160.871185,228.234802 C160.871185,228.234802 162.127869,234.207275 162.127869,234.207275" id="Shape-3" fill="#3B434F" fill-rule="nonzero"></path>
            <path d="M155.468323,275.994812 C155.468323,275.994812 154.339172,276.848145 153.369171,276.848145 C152.39917,276.848145 151.283783,275.994812 151.283783,275.994812 C151.283783,275.994812 149.201569,255.012024 149.201569,255.012024 C149.201569,255.012024 152.074493,244.678558 164.265381,250.139496 C164.265381,250.139496 164.553558,256.139221 164.553558,256.139221 C164.553558,256.139221 153.85791,252.346008 154.079071,257.069427 C154.291962,261.615967 155.468323,275.994812 155.468323,275.994812 Z" id="Shape-4" fill="#3B434F" fill-rule="nonzero"></path>
            <path d="M356.813416,233.362122 C356.825256,233.362793 357.865631,232.536163 359.83017,231.920715 C360.812073,231.613678 362.032379,231.361115 363.423309,231.298828 C363.77066,231.283295 364.128174,231.279602 364.494019,231.289948 C364.859833,231.300262 365.233978,231.324615 365.614319,231.365021 C366.374847,231.445862 367.16037,231.591156 367.950806,231.817383 C371.115753,232.722351 374.344391,234.922607 376.24057,239.463959 C377.192413,241.734741 377.820343,244.591064 377.986328,248.164856 C378.027863,249.058319 378.040558,249.996613 378.022369,250.981812 C378.00412,251.96701 377.954956,252.999115 377.872833,254.0802 C377.70871,256.242279 377.412292,258.600311 376.970673,261.169769 C376.980347,261.167236 377.382568,268.934509 374.591705,277.859589 C371.968048,286.585632 365.667725,297.304779 354.035187,300.367889 C355.373047,278.203552 355.414612,255.623779 356.813416,233.362122 C356.813416,233.362122 356.813416,233.362122 356.813416,233.362122 Z" id="Shape-11-copy_1" fill="#FFFFFF" fill-rule="nonzero"></path>
            <path d="M355.482605,234.255676 C355.482605,234.255676 375.747375,228.00824 375.03421,248.736633 C375.03421,248.736633 372.017151,278.793488 370.70697,281.563599 C370.70697,281.563599 362.748444,299.063751 349.614044,299.839325 C336.777039,300.597321 349.614044,299.839325 349.614044,299.839325 C349.614044,299.839325 349.45462,305.480011 349.45462,305.480011 C349.45462,305.480011 372.539917,302.535034 376.998688,276.065399 C376.998688,276.065399 380.517914,252.019012 380.517914,252.019012 C380.517914,252.019012 383.250458,220.195984 356.744781,228.287231 C330.922913,236.169769 356.744781,228.287231 356.744781,228.287231 C356.744781,228.287231 355.482605,234.255676 355.482605,234.255676" id="Shape-3_1" fill="#3B434F" fill-rule="nonzero"></path>
            <path d="M362.171326,276.014832 C362.171326,276.014832 363.30542,276.867584 364.279663,276.867584 C365.253906,276.867584 366.374176,276.014832 366.374176,276.014832 C366.374176,276.014832 368.465515,255.046295 368.465515,255.046295 C368.465515,255.046295 365.580017,244.719849 353.335724,250.177063 C353.335724,250.177063 353.046295,256.172729 353.046295,256.172729 C353.046295,256.172729 363.788788,252.38208 363.56665,257.102295 C363.352844,261.645752 362.171326,276.014832 362.171326,276.014832 Z" id="Shape-4_1" fill="#3B434F" fill-rule="nonzero"></path>
            <path d="M266.893341,274.333344 C267.391052,274.333344 267.888947,274.333344 268.386658,274.333344 C271.474121,278.526306 272.730225,284.969757 274.359985,290.546661 C274.865051,292.274963 274.375061,295.297974 273.933319,296.519989 C272.315552,300.995514 267.235687,300.915192 263.053345,302.919983 C261.930115,303.458435 261.094604,304.387817 259.640015,304.626678 C258.691711,303.791351 257.546722,303.627289 257.079987,302.279999 C255.927673,300.693268 257.412811,299.702393 258.573334,299.079987 C260.679565,297.950409 267.181488,296.837097 267.959991,294.813324 C268.923218,293.71759 268.282745,290.423157 267.959991,289.266663 C267.133392,286.304504 266.736633,283.831543 265.613342,281.160004 C264.867188,279.385498 263.557159,277.514496 264.333344,275.399994 C264.976532,275.12381 266.366638,274.809784 266.893341,274.333344 Z" id="new_vector_shape_done" fill="#3B434F"></path>
            <path d="M209.506683,238.066681 C214.219513,238.066681 218.040009,241.887177 218.040009,246.600006 C218.040009,251.312836 214.219513,255.133331 209.506683,255.133331 C204.793854,255.133331 200.973328,251.312836 200.973328,246.600006 C200.973328,241.887177 204.793854,238.066681 209.506683,238.066681 Z" id="oko" fill="#3B434F" fill-rule="nonzero"></path>
            <path d="M309.346649,238.066681 C314.059479,238.066681 317.879974,241.887177 317.879974,246.600006 C317.879974,251.312836 314.059479,255.133331 309.346649,255.133331 C304.63385,255.133331 300.813324,251.312836 300.813324,246.600006 C300.813324,241.887177 304.63385,238.066681 309.346649,238.066681 Z" id="oko_1" fill="#3B434F" fill-rule="nonzero"></path>
            <path d="M310.626678,269.640015 C316.5177,269.640015 321.293335,274.415649 321.293335,280.306671 C321.293335,286.197693 316.5177,290.973328 310.626678,290.973328 C304.735626,290.973328 299.960022,286.197693 299.960022,280.306671 C299.960022,274.415649 304.735626,269.640015 310.626678,269.640015 Z" id="Ellipse-3" fill="#EDF1F1" fill-rule="nonzero"></path>
            <path d="M207.373352,269.640015 C213.264374,269.640015 218.040009,274.415649 218.040009,280.306671 C218.040009,286.197693 213.264374,290.973328 207.373352,290.973328 C201.4823,290.973328 196.706696,286.197693 196.706696,280.306671 C196.706696,274.415649 201.4823,269.640015 207.373352,269.640015 Z" id="Ellipse-3-copy" fill="#EDF1F1" fill-rule="nonzero"></path>
            <path d="M286.326904,226.440948 C286.326904,226.440948 311.871521,211.836151 330.119781,227.927032 C330.119781,227.927032 334.946655,228.675201 334.946655,228.675201 C334.946655,228.675201 328.764191,206.177856 283.746674,220.806366 C283.746674,220.806366 285,225 285,225 M286,225 C286,225 311.987244,210.0737 329.119781,228.927032 C329.119781,228.927032 337.946655,228.675201 337.946655,228.675201 C337.946655,228.675201 326.938019,204.643188 281.746674,219.806366 C281.746674,219.806366 286,226 286,226" id="R-copy" fill="#3B434F" fill-rule="nonzero"></path>
            <path d="M231.438354,226.525543 C231.438354,226.525543 205.979004,212.049988 187.791626,227.998474 C187.791626,227.998474 182.980865,228.740021 182.980865,228.740021 C182.980865,228.740021 189.1427,206.441772 234.009979,220.940826 C234.009979,220.940826 232.760834,225.097351 232.760834,225.097351 M231.764191,225.097351 C231.764191,225.097351 205.863647,210.303131 188.7883,228.989624 C188.7883,228.989624 179.990875,228.740021 179.990875,228.740021 C179.990875,228.740021 190.962769,204.920685 236.003326,219.949677 C236.003326,219.949677 231.764191,226.088501 231.764191,226.088501" id="R-copy-3" fill="#3B434F" fill-rule="nonzero"></path>
            <path d="M163.750946,229.533356 C163.750946,229.533356 167.043091,178.136658 198.760651,155.293335 C198.760651,155.293335 244.557495,186.446655 316.598297,155.293335 C316.598297,155.293335 348.462616,169.806671 353.315826,229.533356 C353.315826,229.533356 355.026398,229.533356 355.026398,229.533356 C355.026398,229.533356 364.149597,161.119995 340.507355,133.959991 C340.507355,133.959991 334.683533,113.160004 303.789856,98.119995 C303.789856,98.119995 292.689209,104.946686 292.689209,104.946686 C292.689209,104.946686 285.230957,95.819977 265.364532,84.466675 C265.364532,84.466675 250.671509,91.013336 243.163239,102.386658 C243.163239,102.386658 231.20871,94.706665 231.20871,94.706665 C231.20871,94.706665 214.504364,102.353333 204.737946,116.040009 C204.737946,116.040009 186.806122,118.599976 186.806122,118.599976 C186.806122,118.599976 177.413269,135.666656 177.413269,135.666656 C177.413269,135.666656 154.99234,153.72998 162.040344,227.82666 C162.040344,227.82666 163.750946,229.533356 163.750946,229.533356 Z" id="Shape-6-copy-3" fill="#3B434F" fill-rule="nonzero"></path>
            <g id="Shape-6-copy-Clipped">
                <mask id="mask-2" fill="white">
                    <use xlink:href="#path-1"></use>
                </mask>
                <g id="path6706"></g>
                <mask id="mask-4" fill="white">
                    <use xlink:href="#path-3"></use>
                </mask>
                <g id="path6708"></g>
                <path d="M166.73761,229.960022 C166.73761,229.960022 171.057526,181.91333 198.760651,158.279999 C198.760651,158.279999 244.557495,189.859985 316.598297,158.706665 C316.598297,158.706665 345.475952,169.380005 350.329163,229.106689 C350.329163,229.106689 358.439728,229.533356 358.439728,229.533356 C358.439728,229.533356 367.562927,160.693329 343.920685,133.533325 C343.920685,133.533325 335.536865,109.746674 304.643188,94.706665 C304.643188,94.706665 293.133331,101.106659 293.133331,101.106659 C293.133331,101.106659 285.693085,92.406647 265.82666,81.053345 C265.82666,81.053345 250.294952,86.746674 242.786682,98.119995 C242.786682,98.119995 231.635376,90.866669 231.635376,90.866669 C231.635376,90.866669 213.651031,99.366669 203.884613,113.053345 C203.884613,113.053345 185.099457,115.613312 185.099457,115.613312 C185.099457,115.613312 174.853271,134.386658 174.853271,134.386658 C174.853271,134.386658 152.432343,153.72998 159.480347,227.82666 C159.480347,227.82666 166.73761,229.960022 166.73761,229.960022 Z" id="Shape-6-copy" fill="#3B434F" fill-rule="nonzero" mask="url(#mask-4)"></path>
            </g>
            <path d="M260.13913,103.673004 C260.766876,104.139984 260.456116,104.572113 260.319794,105.156036 C260.116425,106.027191 259.875153,106.889465 259.739258,107.758759 C259.533295,109.075989 259.34552,110.394775 259.291626,111.694336 C259.246307,112.787109 259.265961,113.876282 259.284943,114.958466 C259.295898,115.583405 259.402863,116.207275 259.418243,116.833221 C259.424377,117.082947 259.492401,117.333405 259.49942,117.587555 C259.51474,117.656525 259.53006,117.725525 259.54538,117.794464 C259.554291,118.113892 259.638031,118.418579 259.646851,118.737396 C259.698944,119.026062 259.751099,119.314789 259.803192,119.603455 C259.879852,120.060913 259.917114,120.538452 260.057037,120.98407 C260.072388,121.098175 260.087738,121.212341 260.103088,121.326447 C260.214111,121.680573 260.250458,122.046082 260.362183,122.401337 C260.370178,122.471497 260.378174,122.541687 260.386169,122.611877 C260.548309,123.124084 260.621338,123.662994 260.78302,124.172028 C261.045563,124.998596 261.259186,125.828674 261.548767,126.653381 C261.740814,127.200348 261.906372,127.773346 262.099579,128.323517 C262.443481,129.302887 262.863159,130.259399 263.24115,131.228119 C263.471252,131.81781 263.779968,132.36264 264.026459,132.949768 C264.72403,134.611328 265.620361,136.244385 266.477478,137.873077 C266.754395,138.399261 267.05835,138.883179 267.365234,139.397095 C267.561005,139.725006 267.764282,140.092438 267.944855,140.430176 C268.044769,140.617065 268.169952,140.757965 268.278625,140.939453 C268.514221,141.332855 268.76947,141.755707 269.001282,142.152069 C269.215668,142.518616 269.457703,142.831635 269.694489,143.188934 C269.949677,143.574036 270.202393,144.007477 270.46109,144.394287 C270.910645,145.066498 271.387482,145.716125 271.832764,146.380096 C272.29538,147.069885 272.815399,147.680603 273.305206,148.360535 C274.254456,149.678192 275.364014,150.942261 276.387421,152.264771 C276.693756,152.660614 277.060242,153.006714 277.366455,153.389771 C277.519196,153.580872 277.774567,153.747833 277.87796,153.948639 C277.920044,154.030396 277.944092,154.156403 277.973419,154.248962 C278.02063,154.397919 278.008423,154.581879 278.010437,154.739624 C278.013641,154.992157 278.02594,155.247955 277.98172,155.512177 C277.935883,155.78595 277.762024,156.08728 277.648987,156.357635 C277.558197,156.574646 277.332123,156.765961 277.204224,156.871613 C277.096588,156.960571 277.052185,157.043304 276.942474,157.129486 C276.657043,157.35379 276.334045,157.538269 276.021484,157.63205 C275.697479,157.729248 275.278717,157.438263 275.022766,157.131287 C274.575043,156.594269 274.015137,156.101257 273.585449,155.562805 C273.493591,155.447662 273.391541,155.396576 273.3013,155.28241 C272.805206,154.654846 272.196228,154.063904 271.706268,153.446503 C271.594421,153.305573 271.471863,153.226562 271.363434,153.08551 C270.982513,152.590027 270.536194,152.143463 270.149689,151.638062 C269.180786,150.371185 268.135986,149.147095 267.259918,147.871307 C267.055084,147.573029 266.835266,147.337463 266.634644,147.03775 C265.215668,144.917664 263.791779,142.83429 262.654816,140.673981 C262.355621,140.10553 262.024994,139.588593 261.744995,139.018158 C260.950043,137.398529 260.208557,135.779907 259.528473,134.146301 C259.439117,133.931671 259.374268,133.691681 259.291687,133.474213 C258.91922,132.493561 258.581696,131.525146 258.247162,130.542236 C257.909668,129.55069 257.717651,128.514801 257.402252,127.520752 C257.335724,127.311096 257.31543,127.08371 257.247864,126.868866 C257.238647,126.791351 257.229431,126.713837 257.220215,126.636353 C257.147064,126.403229 257.139069,126.155396 257.067627,125.927704 C256.896362,125.381622 256.843414,124.791473 256.749451,124.230347 C256.660767,123.700745 256.539612,123.159149 256.52475,122.61908 C256.504517,122.520844 256.484283,122.422546 256.464081,122.32428 C256.454376,121.97348 256.365753,121.62677 256.357025,121.280701 C256.341827,120.676636 256.246002,120.074524 256.234772,119.471832 C256.220795,118.722351 256.191956,117.970154 256.196411,117.220032 C256.200897,116.469025 256.263123,115.734894 256.306458,114.977509 C256.423828,112.925781 256.799042,110.864166 257.294556,108.739441 C257.474304,107.968719 257.762634,107.21463 258.005371,106.442596 C258.172607,105.910767 258.435699,105.398315 258.623322,104.872467 C258.672302,104.735229 258.748413,104.653687 258.800751,104.515656 C258.913177,104.219055 259.060577,103.854126 259.334961,103.659393 C259.457733,103.572296 259.739899,103.525665 259.88443,103.56842 C259.985107,103.598175 260.048706,103.675537 260.13913,103.673004 Z M240.115997,118.38147 C240.570404,118.710175 240.534698,119.191589 240.545563,119.597473 C240.556793,120.018097 240.677734,120.436798 240.689392,120.860809 C240.738464,121.153748 240.787537,121.446747 240.836609,121.739685 C240.843109,121.976959 240.90274,122.201996 240.941528,122.433624 C240.981537,122.672333 240.99884,122.912445 241.072144,123.145905 C241.116302,123.409546 241.160461,123.673248 241.20462,123.93689 C241.277435,124.169128 241.285645,124.417389 241.357208,124.645538 C241.578522,125.351135 241.663116,126.099823 241.888245,126.804443 C242.126892,127.551483 242.30127,128.323822 242.560394,129.064178 C242.899811,130.034027 243.231964,131.010071 243.601227,131.974182 C243.790039,132.467133 244.014679,132.927948 244.215973,133.41922 C244.369873,133.7948 244.516144,134.204071 244.691284,134.571198 C245.418701,136.095856 246.169739,137.619171 246.969849,139.139191 C247.603394,140.342834 248.359192,141.491394 249.053436,142.678162 C249.267487,143.044067 249.509308,143.358612 249.746643,143.714996 C250.282318,144.519409 250.852325,145.355957 251.400787,146.173431 C251.919312,146.946259 252.54245,147.666565 253.087769,148.423187 C253.176849,148.546783 253.280029,148.613617 253.366425,148.738342 C253.642853,149.137421 254.0047,149.52182 254.308868,149.914551 C254.461792,150.11203 254.655579,150.249115 254.794708,150.455078 C255.099304,150.906097 255.289276,151.747162 255.144104,152.271484 C254.892639,153.179871 254.015839,153.791473 253.34845,154.025391 C253.147064,154.095978 252.832794,154.223724 252.614014,154.158295 C252.269226,154.055206 252.049225,153.74823 251.847809,153.494843 C251.587463,153.167267 251.284027,152.929443 251.031982,152.602509 C250.566284,151.998383 250.018127,151.458435 249.552399,150.84906 C248.577148,149.573029 247.578278,148.338654 246.712067,147.040253 C244.706543,144.034149 243.042419,140.999573 241.744598,137.881897 C241.205872,136.587708 240.772186,135.253082 240.33847,133.937195 C240.184021,133.468658 240.099487,132.967377 239.950867,132.499695 C239.747162,131.858673 239.656677,131.197601 239.456635,130.560516 C239.446198,130.475677 239.43573,130.390839 239.425293,130.306 C239.392853,130.163696 239.344696,130.026489 239.320557,129.882996 C239.303986,129.761566 239.287415,129.640106 239.270844,129.518646 C239.195404,129.278351 239.177704,129.030212 239.136566,128.784393 C239.096588,128.545685 239.034668,128.312958 239.027924,128.068512 C238.997894,127.911652 238.967865,127.754761 238.937805,127.597931 C238.919891,126.958038 238.766266,126.330933 238.753174,125.686493 C238.750092,125.534454 238.701569,125.373322 238.697876,125.221436 C238.682922,124.605072 238.622009,123.986908 238.624922,123.370514 C238.628479,122.668579 238.621704,121.95459 238.665558,121.252441 C238.682831,120.9758 238.731293,120.715088 238.743713,120.437836 C238.757294,120.133728 238.811005,119.842438 238.851074,119.528076 C238.874847,119.341705 238.875153,119.116058 238.931244,118.927704 C238.98819,118.736359 239.183899,118.427032 239.364929,118.347778 C239.488464,118.293732 239.726471,118.239929 239.861298,118.276886 C239.962494,118.304596 240.025085,118.383881 240.115997,118.38147 Z M224.815613,121.570282 C225.326294,121.944733 225.184509,122.417206 225.181122,122.875916 C225.17569,123.614044 225.250427,124.35083 225.26889,125.085663 C225.28363,125.671478 225.433533,126.253296 225.449738,126.839661 C225.48468,127.025787 225.519653,127.211975 225.554596,127.398132 C225.563568,127.723053 225.63382,128.142487 225.731232,128.452789 C225.740448,128.530273 225.749664,128.607819 225.758881,128.685303 C225.789032,128.865234 225.826782,129.042236 225.882019,129.21817 C225.894928,129.317627 225.907806,129.417145 225.920715,129.516602 C226.052032,129.935455 226.092529,130.383575 226.225769,130.798401 C226.544464,131.790527 226.797791,132.805328 227.145782,133.796143 C227.900055,135.943756 228.93396,138.025452 230.033813,140.114899 C230.39325,140.79776 230.840637,141.433167 231.20401,142.111511 C231.358978,142.400757 231.562286,142.63562 231.734009,142.91571 C232.2034,143.681305 232.747559,144.445007 233.257965,145.203735 C233.964386,146.253845 234.824921,147.211121 235.575684,148.252289 C235.838745,148.617126 236.170929,148.933929 236.426422,149.285645 C236.653625,149.59845 236.947662,149.833069 237.190918,150.141327 C237.672791,150.751953 238.280273,151.333527 238.791443,151.942474 C239.086487,152.293976 239.437347,152.577789 239.722748,152.917328 C240.041534,153.2966 240.442535,153.599854 240.756653,153.965485 C240.83609,154.035126 240.915527,154.104797 240.994965,154.174438 C241.315369,154.553558 241.762604,154.889435 242.093018,155.268433 C242.234039,155.430176 242.401367,155.505829 242.543945,155.667969 C243.007385,156.194977 243.661011,156.62207 244.136902,157.154205 C244.272736,157.306091 244.453522,157.408905 244.575012,157.544586 C244.626312,157.581238 244.677643,157.61792 244.728973,157.654572 C244.893188,157.837585 245.148987,158.005188 245.315552,158.189728 C245.371124,158.229431 245.426727,158.269165 245.48233,158.308868 C245.754425,158.61087 246.173676,158.849915 246.448334,159.153778 C246.521027,159.205719 246.593719,159.25766 246.666412,159.309601 C247.016571,159.696655 247.572021,159.973633 247.92749,160.365326 C248.086945,160.485687 248.246429,160.606079 248.405884,160.72644 C248.483704,160.812134 248.651733,160.886169 248.743134,160.986725 C248.985168,161.253021 249.39328,161.462158 249.655914,161.716217 C249.811157,161.866425 250.054596,161.969879 250.185608,162.114014 C250.301147,162.241119 250.510651,162.326233 250.61264,162.438446 C250.946198,162.676758 251.279816,162.915131 251.613342,163.153412 C252.402863,163.717499 253.189606,164.246246 253.953796,164.786865 C254.315521,165.042755 254.764618,165.244385 254.987518,165.564087 C255.113434,165.74469 255.163666,166.004181 255.229797,166.201416 C255.378601,166.645081 255.440033,167.171814 255.315155,167.65506 C255.27713,167.802307 255.200409,167.901672 255.145111,168.055817 C255.056549,168.302734 254.909241,168.685944 254.645691,168.917603 C254.474274,169.068268 254.295563,169.271362 254.105682,169.402222 C253.812988,169.603882 253.493774,169.496277 253.136627,169.348175 C253.0224,169.27301 252.908142,169.197815 252.793915,169.12265 C252.246246,168.887512 251.734558,168.384369 251.184845,168.147156 C251.078949,168.101471 250.968079,167.986877 250.880615,167.949127 C250.697968,167.825104 250.515289,167.701019 250.332642,167.576965 C250.131592,167.490051 249.950989,167.279114 249.724182,167.180939 C249.534485,167.098846 249.340485,166.945465 249.154205,166.812408 C249.085785,166.76355 249.017365,166.71463 248.948944,166.665771 C248.765869,166.586456 248.549591,166.419006 248.378967,166.297241 C248.130951,166.120056 247.882874,165.94281 247.634857,165.765594 C247.3685,165.649902 247.07309,165.383575 246.817444,165.200958 C246.605652,165.049652 246.318787,164.886597 246.159454,164.711517 C246.014069,164.607635 245.868652,164.503723 245.723267,164.399872 C245.419617,164.182953 245.120209,163.968933 244.856323,163.741791 C244.710938,163.637909 244.565491,163.534027 244.420105,163.430145 C244.209595,163.197876 243.844513,163.022125 243.63562,162.792297 C243.537262,162.722046 243.438904,162.651733 243.340546,162.581482 C243.188049,162.412964 242.924927,162.265564 242.774139,162.099457 C242.688629,162.038361 242.603088,161.977234 242.517548,161.916138 C242.401886,161.787903 242.195404,161.653748 242.079468,161.525757 C242.011047,161.476868 241.942627,161.427979 241.874207,161.37912 C241.473572,160.934509 240.88681,160.598724 240.495758,160.16217 C240.373566,160.061981 240.251373,159.961761 240.129181,159.861572 C239.623505,159.292908 238.93988,158.836151 238.451874,158.276398 C238.319183,158.124146 238.169556,158.055481 238.039429,157.904358 C237.588318,157.380341 237.012573,156.913422 236.578369,156.39624 C236.506744,156.310974 236.437012,156.291168 236.365723,156.205658 C236.161041,155.960083 235.896637,155.706421 235.698395,155.458069 C235.60611,155.342468 235.506073,155.29361 235.414246,155.177704 C234.727356,154.310852 233.91983,153.537201 233.254486,152.667511 C232.076172,151.12738 230.846893,149.62442 229.915283,148.038086 C229.704285,147.678802 229.452667,147.378113 229.247711,147.019562 C228.885101,146.385162 228.489655,145.760498 228.149048,145.112701 C227.615997,144.09906 227.117096,143.076935 226.631805,142.055786 C226.290466,141.337524 226.020233,140.564941 225.739868,139.832458 C225.509766,139.231201 225.290344,138.646667 225.079071,138.045044 C224.871216,137.453064 224.72229,136.83728 224.528168,136.23941 C224.330719,135.631348 224.249908,134.986206 224.0578,134.375305 C223.984833,134.14325 223.992401,133.850342 223.919861,133.61908 C223.740936,133.048798 223.697906,132.429108 223.599762,131.842987 C223.180878,129.341187 223.137421,126.779358 223.321014,124.177551 C223.363373,123.577057 223.488403,123.008331 223.587097,122.394714 C223.63208,122.115173 223.723785,121.76001 224.033417,121.55304 C224.132111,121.487061 224.446045,121.435089 224.560913,121.465668 C224.655151,121.490753 224.728973,121.572388 224.815613,121.570282 Z" id="new_vector_shape_done-copy" fill="#3B434F" opacity="0.2"></path>
            <line xmlns="http://www.w3.org/2000/svg" x1="175.5" y1="314.5" x2="342.5" y2="314.5" id="Line-4" stroke-dasharray="167" stroke-dashoffset="167" stroke="#06FF00" stroke-width="8" stroke-linecap="round">
            </line>
            <line xmlns="http://www.w3.org/2000/svg" x1="196.5" y1="354.5" x2="321.5" y2="354.5" id="Line-4" stroke-dasharray="125" stroke-dashoffset="125" stroke="#06FF00" stroke-width="8" stroke-linecap="round">
                <animate attributeName="stroke-dashoffset" values="125;115;110;90;60;45;15;0;0;0;0" dur="1s" repeatCount="indefinite"></animate>
            </line>
        </g>
    </g>
</svg>